<svg id="pdf" xmlns="http://www.w3.org/2000/svg" xmlns:xlink="http://www.w3.org/1999/xlink" width="25.371" height="28.887" viewBox="0 0 25.371 28.887">
  <defs>
    <linearGradient id="linear-gradient" y1="0.5" x2="1" y2="0.5" gradientUnits="objectBoundingBox">
      <stop offset="0" stop-color="#5729ff"/>
      <stop offset="0.2" stop-color="#5a2dff"/>
      <stop offset="0.4" stop-color="#6439ff"/>
      <stop offset="0.6" stop-color="#754eff"/>
      <stop offset="0.9" stop-color="#8c6cff"/>
      <stop offset="1" stop-color="#9c80ff"/>
    </linearGradient>
  </defs>
  <path id="Path_706" data-name="Path 706" d="M71.887,228.908V231.5H68.041v1.07A1.763,1.763,0,0,1,68,232.21V230.7a1.909,1.909,0,0,1,2-1.8h1.89Z" transform="translate(-68 -215.346)" fill="#ab94fc"/>
  <path id="Path_707" data-name="Path 707" d="M127.086,276.593H123.8v-1.186a7.828,7.828,0,0,1,1.334-.107,2.547,2.547,0,0,1,1.309.3.887.887,0,0,1,.2.148,1.376,1.376,0,0,1,.445.84Z" transform="translate(-119.246 -257.925)" fill="#5e48ff"/>
  <path id="Path_708" data-name="Path 708" d="M176.355,275.5a1.9,1.9,0,0,1-.955,1.054V275.6C175.688,275.558,176.009,275.516,176.355,275.5Z" transform="translate(-166.597 -258.109)" fill="#5e48ff"/>
  <path id="Path_709" data-name="Path 709" d="M119.149,64.3H107.7a3.2,3.2,0,0,0-3.2,3.2V77.862h.922v2.594h.066V67.5a2.207,2.207,0,0,1,2.207-2.207h10.878v4.438a2.871,2.871,0,0,0,2.874,2.874h4.471V89.992a2.207,2.207,0,0,1-2.207,2.207H107.7a2.207,2.207,0,0,1-2.207-2.207v-1.63h-.988v1.63a3.2,3.2,0,0,0,3.2,3.2h16.008a3.2,3.2,0,0,0,3.2-3.2V72.057l-7.749-7.749Zm2.289,7.3a1.891,1.891,0,0,1-1.886-1.886V66.227L124.93,71.6h-3.5Z" transform="translate(-101.536 -64.3)" fill="#ab94fc"/>
  <path id="Path_710" data-name="Path 710" d="M87.275,260.5H68.5v6.275a1.634,1.634,0,0,0,1.63,1.63H87.275A1.729,1.729,0,0,0,89,266.676v-4.447A1.729,1.729,0,0,0,87.275,260.5Zm-11.323,3.944a2.217,2.217,0,0,1-1.647.593c-.683,0-.4-.008-.56-.049v2.157h-.692v-5.311a7.835,7.835,0,0,1,1.334-.107,2.547,2.547,0,0,1,1.309.3.886.886,0,0,1,.2.148,1.376,1.376,0,0,1,.445.84,1.633,1.633,0,0,1,.025.288A1.593,1.593,0,0,1,75.952,264.444Zm4.982,1.968a3.318,3.318,0,0,1-2.38.774,5.742,5.742,0,0,1-1.26-.066v-5.287c.288-.041.609-.082.955-.1.165-.008.338-.016.519-.016a3.078,3.078,0,0,1,2.174.667,2.475,2.475,0,0,1,.758,1.927,2.868,2.868,0,0,1-.774,2.092Zm4.57-4.068h-2.2v1.787H85.34v.576H83.306v2.429h-.692V261.76h2.9v.585Z" transform="translate(-68.5 -244.344)" fill="#ab94fc"/>
  <path id="Path_711" data-name="Path 711" d="M127.086,276.685a1.632,1.632,0,0,1,.025.288,1.592,1.592,0,0,1-.412,1.145,2.217,2.217,0,0,1-1.647.593c-.683,0-.4-.008-.56-.049v2.157H123.8v-5.311a7.832,7.832,0,0,1,1.334-.107,2.546,2.546,0,0,1,1.309.3.887.887,0,0,1,.2.148A1.376,1.376,0,0,1,127.086,276.685Z" transform="translate(-119.246 -258.017)" fill="#a58dff"/>
  <path id="Path_712" data-name="Path 712" d="M179.714,278a2.855,2.855,0,0,1-.774,2.092,3.319,3.319,0,0,1-2.38.774,5.739,5.739,0,0,1-1.26-.066v-5.287c.288-.041.609-.082.955-.1.165-.008.338-.016.519-.016a3.078,3.078,0,0,1,2.174.667,2.476,2.476,0,0,1,.758,1.927Z" transform="translate(-166.505 -258.017)" fill="#a58dff"/>
  <path id="Path_713" data-name="Path 713" d="M240.5,276.476v1.787h2.034v.576H240.5v2.429h-.7V275.9h2.9v.576Z" transform="translate(-225.694 -258.476)" fill="url(#linear-gradient)"/>
  <g id="Group_691" data-name="Group 691" transform="translate(4.554 17.383)">
    <path id="Path_714" data-name="Path 714" d="M127.086,276.685a1.419,1.419,0,0,0-.445-.84,1.126,1.126,0,0,0-.2-.148,2.446,2.446,0,0,0-1.309-.3,7.838,7.838,0,0,0-1.334.107v5.311h.692v-2.157a2.323,2.323,0,0,0,.56.049,2.23,2.23,0,0,0,1.647-.593,1.571,1.571,0,0,0,.412-1.145C127.11,276.487,127.11,276.775,127.086,276.685Zm-2.017,1.466a2.3,2.3,0,0,1-.576-.058V276a2.854,2.854,0,0,1,.651-.058c.642,0,1.1.239,1.227.733a1.25,1.25,0,0,1,.041.313c0,.741-.511,1.153-1.35,1.153Z" transform="translate(-123.8 -275.4)" fill="#fff"/>
    <path id="Path_715" data-name="Path 715" d="M179.048,276.067a3.079,3.079,0,0,0-2.174-.667c-1,0-.354,0-.519.016-.346.016-.675.058-.955.1V280.8a10.894,10.894,0,0,0,1.26.066,3.318,3.318,0,0,0,2.38-.774,2.842,2.842,0,0,0,.774-2.092,2.451,2.451,0,0,0-.758-1.927Zm-2.256,4.233a4.2,4.2,0,0,1-.7-.041v-4.241a3.8,3.8,0,0,1,.815-.074,1.917,1.917,0,0,1,2.174,2.075A2.068,2.068,0,0,1,176.792,280.3Z" transform="translate(-171.151 -275.4)" fill="#fff"/>
    <path id="Path_716" data-name="Path 716" d="M242.7,276.385V275.8h-2.9v5.377h.692v-2.429h2.034v-.576h-2.034v-1.787H242.7Z" transform="translate(-230.248 -275.767)" fill="#fff"/>
  </g>
  <line id="Line_24" data-name="Line 24" x2="7.897" transform="translate(5.952 7.632)" fill="none" stroke="#ab94fc" stroke-linecap="round" stroke-width="1"/>
  <line id="Line_25" data-name="Line 25" x2="15.794" transform="translate(5.952 11.581)" fill="none" stroke="#ab94fc" stroke-linecap="round" stroke-width="1"/>
</svg>
