<svg id="Notes-1" xmlns="http://www.w3.org/2000/svg" width="43.412" height="47.164" viewBox="0 0 43.412 47.164">
  <path id="Path_717" data-name="Path 717" d="M177.178,138.472h0ZM175.023,104.5H149.9v1.579h25.123a2.164,2.164,0,0,1,2.156,2.156V125.3h1.579V108.234a3.732,3.732,0,0,0-3.734-3.734Z" transform="translate(-145.088 -101.221)" fill="#52ba9a"/>
  <path id="Path_718" data-name="Path 718" d="M152.031,83.978v6a1.082,1.082,0,0,1-1.078,1.078h-.076a1.082,1.082,0,0,1-1.078-1.078v-6a1.082,1.082,0,0,1,1.078-1.078h.076A1.082,1.082,0,0,1,152.031,83.978Z" transform="translate(-145.003 -82.9)" fill="#4baa8d"/>
  <rect id="Rectangle_421" data-name="Rectangle 421" width="2.216" height="8.136" rx="1.108" transform="translate(7.954)" fill="#4baa8d"/>
  <rect id="Rectangle_422" data-name="Rectangle 422" width="2.216" height="8.136" rx="1.108" transform="translate(11.096)" fill="#4baa8d"/>
  <rect id="Rectangle_423" data-name="Rectangle 423" width="2.216" height="8.136" rx="1.108" transform="translate(14.254)" fill="#4baa8d"/>
  <rect id="Rectangle_424" data-name="Rectangle 424" width="2.216" height="8.136" rx="1.108" transform="translate(17.396)" fill="#4baa8d"/>
  <rect id="Rectangle_425" data-name="Rectangle 425" width="2.216" height="8.136" rx="1.108" transform="translate(20.538)" fill="#4baa8d"/>
  <rect id="Rectangle_426" data-name="Rectangle 426" width="2.216" height="8.136" rx="1.108" transform="translate(23.681)" fill="#4baa8d"/>
  <rect id="Rectangle_427" data-name="Rectangle 427" width="2.216" height="8.136" rx="1.108" transform="translate(26.838)" fill="#4baa8d"/>
  <path id="Path_719" data-name="Path 719" d="M151.884,138.557v6.178a3.732,3.732,0,0,1-3.734,3.734H121.934a3.741,3.741,0,0,1-3.734-3.734v-36.4a3.732,3.732,0,0,1,3.734-3.734h1.108v1.579h-1.108a2.164,2.164,0,0,0-2.156,2.156v36.4a2.164,2.164,0,0,0,2.156,2.156H148.15a2.164,2.164,0,0,0,2.156-2.156v-6.178Z" transform="translate(-118.2 -101.306)" fill="#4baa8d"/>
  <path id="Path_720" data-name="Path 720" d="M329.43,317.727v4.326h-.03v-4.326Z" transform="translate(-297.34 -280.475)" fill="#52ba9a"/>
  <path id="Path_722" data-name="Path 722" d="M329.4,317.727Z" transform="translate(-297.34 -280.475)" fill="#52ba9a"/>
  <path id="Path_723" data-name="Path 723" d="M171.488,169.822H159.559c-.308,0-.559-.41-.559-.911s.252-.911.559-.911h11.929c.308,0,.559.41.559.911S171.8,169.822,171.488,169.822Z" transform="translate(-152.807 -153.89)" fill="#52ba9a"/>
  <path id="Path_724" data-name="Path 724" d="M177.2,203.822H159.815a.916.916,0,0,1,0-1.822H177.2a.916.916,0,0,1,0,1.822Z" transform="translate(-152.807 -182.729)" fill="#52ba9a"/>
  <path id="Path_758" data-name="Path 758" d="M179.341,203.822h-19.43a.911.911,0,0,1,0-1.822h19.43a.911.911,0,1,1,0,1.822Z" transform="translate(-152.807 -177.401)" fill="#52ba9a"/>
  <path id="Path_759" data-name="Path 759" d="M179.341,203.822h-19.43a.911.911,0,0,1,0-1.822h19.43a.911.911,0,1,1,0,1.822Z" transform="translate(-152.807 -172.073)" fill="#52ba9a"/>
  <path id="Path_760" data-name="Path 760" d="M179.341,203.822h-19.43a.911.911,0,0,1,0-1.822h19.43a.911.911,0,1,1,0,1.822Z" transform="translate(-152.807 -166.745)" fill="#52ba9a"/>
  <g id="Pencil" transform="translate(29.012 19.143)">
    <path id="Path_761" data-name="Path 761" d="M69.1,32" transform="translate(-62.95 -29.763)" fill="#52ba9a"/>
    <path id="Path_762" data-name="Path 762" d="M20.7,31.663c.114-1.525.229-3.037.368-4.562a1.518,1.518,0,0,1,.292-.673c2.656-3.66,5.324-7.332,8.005-10.979a2.193,2.193,0,0,1,3.317-.521c.483.343.966.686,1.436,1.055a2.172,2.172,0,0,1,.5,3.189q-4.041,5.585-8.107,11.144a1.591,1.591,0,0,1-.585.457c-1.36.572-2.732,1.131-4.1,1.677-.762.3-1.131.038-1.106-.775Zm3.469-4.7c1.69-2.325,3.355-4.6,5.045-6.925-.368-.267-.712-.508-1.08-.762-1.766,2.414-3.494,4.79-5.235,7.192C23.381,26.657,23.75,26.8,24.169,26.962ZM30.243,20.8c-1.715,2.351-3.38,4.638-5.045,6.925.3.368.572.7.864,1.055,1.754-2.427,3.482-4.79,5.235-7.2-.356-.267-.686-.5-1.055-.762Zm-7.967,6.925c-.076,1.106-.152,2.135-.229,3.253,1.067-.432,2.033-.826,3.037-1.245A3.611,3.611,0,0,0,22.276,27.724Zm8.056-11.373L33.42,18.6c.559-.712.508-1.144-.127-1.639-.47-.356-.94-.712-1.436-1.042-.623-.432-1.067-.318-1.525.419ZM32.7,19.643c-1.08-.788-2.109-1.538-3.164-2.3-.229.33-.419.6-.635.9,1.08.788,2.1,1.538,3.151,2.3C32.276,20.227,32.454,19.973,32.7,19.643Z" transform="translate(-20.7 -14.394)" fill="#52ba9a"/>
    <path id="Path_763" data-name="Path 763" d="M46.2,45.3" transform="translate(-42.96 -41.373)" fill="#52ba9a"/>
  </g>
</svg>
