<svg id="Group_749" data-name="Group 749" xmlns="http://www.w3.org/2000/svg" width="25.568" height="23.691" viewBox="0 0 25.568 23.691">
  <path id="Path_794" data-name="Path 794" d="M203.715,173.8a3.531,3.531,0,0,1,3.217,2.126,2.961,2.961,0,0,1-.518,3.288,13.868,13.868,0,0,1-1.224,1.224,2.217,2.217,0,0,0-.847,1.758.89.89,0,0,1-.965.918.939.939,0,0,1-.894-.973,3.659,3.659,0,0,1,1.248-2.9c.33-.322.667-.636,1-.957a1.374,1.374,0,0,0,.518-1.538,1.637,1.637,0,0,0-1.475-1.044,1.79,1.79,0,0,0-2.166,1.381.941.941,0,1,1-1.8-.557,3.685,3.685,0,0,1,3.908-2.723Z" transform="translate(-191.247 -168.156)" fill="#ffa14e"/>
  <path id="Path_797" data-name="Path 797" d="M235.375,304.688a.913.913,0,0,1,.895.957.939.939,0,1,1-1.875-.086.9.9,0,0,1,.973-.871Z" transform="translate(-223.158 -287.785)" fill="#ffa14e"/>
  <g id="Union_1" data-name="Union 1" fill="none">
    <path d="M0,11.845A11.846,11.846,0,1,1,23.049,15.7l2.236,3.786A2,2,0,0,1,23.2,22.472l-4.347-.81a2.057,2.057,0,0,1-.27-.07A11.847,11.847,0,0,1,0,11.845Z" stroke="none"/>
    <path d="M 11.84580039978027 1 C 8.948780059814453 1 6.225170135498047 2.128030776977539 4.176679611206055 4.176309585571289 C 2.128170013427734 6.224609375 1 8.948030471801758 1 11.84490013122559 C 1 17.82529067993164 5.865409851074219 22.69070053100586 11.84580039978027 22.69070053100586 C 14.06247997283936 22.69070053100586 16.1938304901123 22.02662086486816 18.00944900512695 20.77024078369141 L 18.41963005065918 20.48641014099121 L 18.89310073852539 20.64334106445312 C 18.93796920776367 20.65821075439453 18.98468971252441 20.67021942138672 19.03187942504883 20.67901992797852 L 23.37858009338379 21.48896026611328 C 23.44594955444336 21.50150108337402 23.51301002502441 21.50785064697266 23.57789993286133 21.50785064697266 C 23.93104934692383 21.50785064697266 24.2509593963623 21.31678009033203 24.43367958068848 20.99673080444336 C 24.51941108703613 20.84654998779297 24.69004058837891 20.44850921630859 24.42354011535645 19.99710083007812 L 21.95321083068848 15.81396007537842 L 22.10353088378906 15.3774299621582 C 22.49374008178711 14.24420070648193 22.69160079956055 13.05568981170654 22.69160079956055 11.84490013122559 C 22.69160079956055 8.948030471801758 21.56343078613281 6.224609375 19.51491928100586 4.176309585571289 C 17.4664306640625 2.128030776977539 14.74281978607178 1 11.84580039978027 1 M 11.84580039978027 0 C 18.38790130615234 0 23.69160079956055 5.302801132202148 23.69160079956055 11.84490013122559 C 23.69160079956055 13.19573020935059 23.46549987792969 14.49357032775879 23.04903984069824 15.70301055908203 L 25.28459930419922 19.48859977722168 C 26.15760040283203 20.96730041503906 24.88409805297852 22.78619956970215 23.19569969177246 22.47209930419922 L 18.84869956970215 21.66209983825684 C 18.7553596496582 21.64470100402832 18.66518974304199 21.62129974365234 18.5784797668457 21.59255981445312 C 16.66667938232422 22.91549110412598 14.34660053253174 23.69070053100586 11.84580039978027 23.69070053100586 C 5.303699493408203 23.69070053100586 0 18.38700103759766 0 11.84490013122559 C 0 5.302801132202148 5.303699493408203 0 11.84580039978027 0 Z" stroke="none" fill="#ffa14e"/>
  </g>
</svg>
