<svg xmlns="http://www.w3.org/2000/svg" xmlns:xlink="http://www.w3.org/1999/xlink" width="44.629" height="50.814" viewBox="0 0 44.629 50.814">
  <defs>
    <linearGradient id="linear-gradient" y1="0.5" x2="1" y2="0.5" gradientUnits="objectBoundingBox">
      <stop offset="0" stop-color="#5729ff"/>
      <stop offset="0.2" stop-color="#5a2dff"/>
      <stop offset="0.4" stop-color="#6439ff"/>
      <stop offset="0.6" stop-color="#754eff"/>
      <stop offset="0.9" stop-color="#8c6cff"/>
      <stop offset="1" stop-color="#9c80ff"/>
    </linearGradient>
  </defs>
  <g id="pdf" transform="translate(0)">
    <path id="Path_706" data-name="Path 706" d="M74.837,228.915v4.563H68.072v1.883a3.1,3.1,0,0,1-.072-.637v-2.651a3.357,3.357,0,0,1,3.512-3.172h3.325Z" transform="translate(-68 -205.057)" fill="#ab94fc"/>
    <path id="Path_707" data-name="Path 707" d="M129.58,277.574H123.8v-2.086a13.775,13.775,0,0,1,2.347-.188,4.479,4.479,0,0,1,2.3.522,1.559,1.559,0,0,1,.348.261,2.42,2.42,0,0,1,.782,1.478Z" transform="translate(-115.79 -244.736)" fill="#5e48ff"/>
    <path id="Path_708" data-name="Path 708" d="M177.08,275.5a3.336,3.336,0,0,1-1.68,1.854v-1.68C175.907,275.6,176.472,275.529,177.08,275.5Z" transform="translate(-159.915 -244.907)" fill="#5e48ff"/>
    <path id="Path_709" data-name="Path 709" d="M130.269,64.3H110.12a5.626,5.626,0,0,0-5.62,5.62V88.157h1.622V92.72h.116V69.92a3.882,3.882,0,0,1,3.882-3.882h19.135v7.808a5.051,5.051,0,0,0,5.055,5.055h7.865v30.593a3.882,3.882,0,0,1-3.882,3.882H110.135a3.882,3.882,0,0,1-3.882-3.882v-2.868h-1.738v2.868a5.626,5.626,0,0,0,5.62,5.62h28.159a5.626,5.626,0,0,0,5.62-5.62V77.945L130.284,64.314ZM134.3,77.148a3.326,3.326,0,0,1-3.317-3.317V67.69l9.459,9.459h-6.156Z" transform="translate(-99.285 -64.3)" fill="#ab94fc"/>
    <path id="Path_710" data-name="Path 710" d="M101.526,260.5H68.5v11.038a2.875,2.875,0,0,0,2.868,2.868h30.158a3.042,3.042,0,0,0,3.042-3.042v-7.822A3.042,3.042,0,0,0,101.526,260.5Zm-19.917,6.938a3.9,3.9,0,0,1-2.9,1.043c-1.2,0-.7-.014-.985-.087v3.8H76.51v-9.343a13.779,13.779,0,0,1,2.347-.188,4.479,4.479,0,0,1,2.3.521,1.557,1.557,0,0,1,.348.261,2.42,2.42,0,0,1,.782,1.477,2.873,2.873,0,0,1,.043.507A2.8,2.8,0,0,1,81.609,267.438Zm8.764,3.462a5.837,5.837,0,0,1-4.186,1.362,10.1,10.1,0,0,1-2.216-.116v-9.3c.507-.072,1.072-.145,1.68-.174.29-.014.594-.029.913-.029a5.415,5.415,0,0,1,3.824,1.173,4.354,4.354,0,0,1,1.333,3.389,5.046,5.046,0,0,1-1.362,3.679Zm8.039-7.156H94.544v3.143h3.578V267.9H94.544v4.273H93.328v-9.459h5.1v1.028Z" transform="translate(-68.5 -232.08)" fill="#ab94fc"/>
    <path id="Path_711" data-name="Path 711" d="M129.58,277.66a2.87,2.87,0,0,1,.043.507,2.8,2.8,0,0,1-.724,2.013,3.9,3.9,0,0,1-2.9,1.043c-1.2,0-.7-.014-.985-.087v3.8H123.8v-9.343a13.778,13.778,0,0,1,2.347-.188,4.48,4.48,0,0,1,2.3.521,1.562,1.562,0,0,1,.348.261A2.42,2.42,0,0,1,129.58,277.66Z" transform="translate(-115.79 -244.822)" fill="#a58dff"/>
    <path id="Path_712" data-name="Path 712" d="M183.064,279.977a5.022,5.022,0,0,1-1.362,3.679,5.837,5.837,0,0,1-4.186,1.362,10.1,10.1,0,0,1-2.216-.116v-9.3c.507-.072,1.072-.145,1.68-.174.29-.015.594-.029.913-.029a5.415,5.415,0,0,1,3.824,1.173,4.355,4.355,0,0,1,1.333,3.39Z" transform="translate(-159.83 -244.822)" fill="#a58dff"/>
    <path id="Path_713" data-name="Path 713" d="M241.031,276.914v3.143h3.578v1.014h-3.578v4.273H239.8V275.9h5.1v1.014Z" transform="translate(-214.987 -245.249)" fill="url(#linear-gradient)"/>
    <g id="Group_691" data-name="Group 691" transform="translate(8.01 30.578)">
      <path id="Path_714" data-name="Path 714" d="M129.58,277.66a2.5,2.5,0,0,0-.782-1.478,1.98,1.98,0,0,0-.348-.261,4.3,4.3,0,0,0-2.3-.521,13.786,13.786,0,0,0-2.347.188v9.343h1.217v-3.8a4.082,4.082,0,0,0,.985.087,3.923,3.923,0,0,0,2.9-1.043,2.764,2.764,0,0,0,.724-2.013C129.623,277.312,129.623,277.819,129.58,277.66Zm-3.549,2.578a4.052,4.052,0,0,1-1.014-.1v-3.679a5.018,5.018,0,0,1,1.144-.1c1.13,0,1.927.42,2.158,1.289a2.2,2.2,0,0,1,.072.551c0,1.3-.9,2.028-2.376,2.028Z" transform="translate(-123.8 -275.4)" fill="#fff"/>
      <path id="Path_715" data-name="Path 715" d="M181.817,276.573a5.416,5.416,0,0,0-3.824-1.173c-1.753,0-.623,0-.913.029-.608.029-1.188.1-1.68.174v9.3a19.179,19.179,0,0,0,2.216.116,5.838,5.838,0,0,0,4.186-1.362,5,5,0,0,0,1.362-3.679,4.312,4.312,0,0,0-1.333-3.39Zm-3.969,7.445a7.389,7.389,0,0,1-1.231-.072v-7.46a6.683,6.683,0,0,1,1.434-.13c2.578,0,3.839,1.42,3.824,3.65C181.875,282.556,180.455,284.019,177.848,284.019Z" transform="translate(-167.926 -275.4)" fill="#fff"/>
      <path id="Path_716" data-name="Path 716" d="M244.9,276.828V275.8h-5.1v9.459h1.217v-4.273h3.578v-1.014h-3.578v-3.143H244.9Z" transform="translate(-222.997 -275.742)" fill="#fff"/>
    </g>
    <line id="Line_24" data-name="Line 24" x2="13.891" transform="translate(10.471 13.426)" fill="none" stroke="#ab94fc" stroke-linecap="round" stroke-width="1"/>
    <line id="Line_25" data-name="Line 25" x2="27.783" transform="translate(10.471 20.371)" fill="none" stroke="#ab94fc" stroke-linecap="round" stroke-width="1"/>
  </g>
</svg>
