<svg xmlns="http://www.w3.org/2000/svg" width="18" height="18" viewBox="0 0 18 18">
  <g id="Layer_2" data-name="Layer 2" transform="translate(-0.452 -0.452)">
    <g id="sync" transform="translate(0.452 0.452)">
      <rect id="Rectangle_501" data-name="Rectangle 501" width="18" height="18" opacity="0"/>
      <path id="Path_817" data-name="Path 817" d="M17.727,8.784a.486.486,0,0,0,.055-.149L18.37,5.5A.8.8,0,1,0,16.8,5.217l-.29,1.568a7.228,7.228,0,0,0-13,.659.786.786,0,0,0,1.458.588,5.55,5.55,0,0,1,5.237-3.457A5.621,5.621,0,0,1,15.1,7.38l-1.293-.212a.794.794,0,1,0-.251,1.568l3.332.557h.125a.729.729,0,0,0,.267-.047.259.259,0,0,0,.078-.047.611.611,0,0,0,.157-.086l.063-.078a.839.839,0,0,0,.11-.125.455.455,0,0,0,.039-.125Z" transform="translate(-1.154 -1.061)"/>
      <path id="Path_818" data-name="Path 818" d="M15.907,13.836a.784.784,0,0,0-1.027.439A5.55,5.55,0,0,1,9.675,17.7a5.621,5.621,0,0,1-4.892-2.806l1.293.212H6.2a.786.786,0,1,0,.125-1.568L3,13a.713.713,0,0,0-.259,0H2.674a.9.9,0,0,0-.251.11.784.784,0,0,0-.141.141l-.071.078a.658.658,0,0,0-.055.149.345.345,0,0,0-.055.133l-.588,3.136a.784.784,0,0,0,.627.956h.141a.784.784,0,0,0,.784-.643l.29-1.568a7.228,7.228,0,0,0,13-.651.784.784,0,0,0-.447-1Z" transform="translate(-0.73 -3.213)"/>
    </g>
  </g>
</svg>
