<?xml version="1.0" encoding="UTF-8"?>
<svg id="Layer_1" data-name="Layer 1" xmlns="http://www.w3.org/2000/svg" version="1.1" viewBox="0 0 32 32">
  <defs>
    <style>
      .cls-1 {
        fill: #b4951a;
        stroke-width: 0px;
      }
    </style>
  </defs>
  <path class="cls-1" d="M16.8,30.6h-1.6c0,0-.1,0-.2,0-1.3,0-2.5-.4-3.7-.9-5.4-2.2-8.7-7.9-7.6-13.9.4-2.1,1.3-4,2.6-5.6,1.5-1.9,3.5-3.2,5.8-3.9.6-.2,1.2-.3,1.9-.5v-1.8h-2.1c-.5,0-.7-.2-.7-.7,0-.4,0-.7,0-1.1,0-.3,0-.6.4-.7h8.4c.3.2.4.4.4.7,0,.4,0,.7,0,1.1,0,.6-.2.7-.7.7h-1.7v1.9c.1,0,.2,0,.3,0,2.3.4,4.3,1.4,6,3,2.4,2.2,3.8,4.9,4.1,8.1.3,3-.4,5.7-2,8.2-2,2.9-4.7,4.7-8.1,5.4-.5,0-1,.1-1.5.2h0ZM26.1,18.1c0-5.6-4.5-10.1-10.1-10.1s-10.1,4.5-10.1,10.1c0,5.6,4.5,10.1,10.1,10.1,5.6,0,10-4.5,10.1-10.1h0Z"/>
  <path class="cls-1" d="M8.8,6.5c-1.3,1.2-2.5,2.3-3.8,3.5-1-.9-.9-2.6,0-3.6,1-1,2.7-.9,3.7.1h0Z"/>
  <path class="cls-1" d="M15.8,18.1v-9c4.5-.2,9.1,3.8,9,9h-9Z"/>
  <path class="cls-1" d="M7.5,18.8v-2h2.7v2h-2.7,0Z"/>
  <path class="cls-1" d="M17.4,24.1v2.6h-1.6v-2.6h1.6Z"/>
  <path class="cls-1" d="M10.6,21.7c-.6.3-1.2.7-1.8,1-.1-.2-.3-.4-.4-.7.6-.3,1.2-.7,1.8-1,.1.2.3.5.4.7Z"/>
  <path class="cls-1" d="M11.6,25.4c.4-.6.7-1.2,1-1.8.2.1.4.3.7.4-.3.6-.7,1.2-1,1.7-.2-.1-.5-.3-.7-.4Z"/>
  <path class="cls-1" d="M8.5,13.7c.1-.2.3-.5.4-.7.6.3,1.2.7,1.8,1-.1.2-.3.4-.4.7-.6-.3-1.2-.7-1.8-1h0Z"/>
  <path class="cls-1" d="M13.3,11.6c-.2.1-.5.3-.7.4-.3-.6-.7-1.2-1-1.8.2-.1.5-.3.7-.4.3.6.7,1.2,1,1.8h0Z"/>
  <path class="cls-1" d="M21.3,25.3c-.2.2-.4.3-.7.4-.3-.6-.7-1.1-1-1.7.2-.1.4-.3.7-.4.3.6.7,1.1,1,1.7h0Z"/>
  <path class="cls-1" d="M24.1,21.8c-.1.2-.2.5-.4.7-.5-.3-1-.6-1.5-.8.1-.2.3-.5.4-.7.5.3.9.5,1.4.8h0Z"/>
</svg>